<svg width="24" height="25" viewBox="0 0 24 25" fill="none" xmlns="http://www.w3.org/2000/svg">
<g id="LinkedIn">
<path id="Vector" d="M5 3.5C3.895 3.5 3 4.395 3 5.5V19.5C3 20.605 3.895 21.5 5 21.5H19C20.105 21.5 21 20.605 21 19.5V5.5C21 4.395 20.105 3.5 19 3.5H5ZM5 5.5H19V19.5H5V5.5ZM7.7793 6.81641C6.9223 6.81641 6.4082 7.33158 6.4082 8.01758C6.4082 8.70358 6.92236 9.2168 7.69336 9.2168C8.55036 9.2168 9.06445 8.70358 9.06445 8.01758C9.06445 7.33158 8.5503 6.81641 7.7793 6.81641ZM6.47656 10.5V17.5H9V10.5H6.47656ZM11.082 10.5V17.5H13.6055V13.6738C13.6055 12.5348 14.4181 12.3711 14.6621 12.3711C14.9061 12.3711 15.5586 12.6158 15.5586 13.6738V17.5H18V13.6738C18 11.4768 17.0237 10.5 15.8027 10.5C14.5817 10.5 13.9305 10.9066 13.6055 11.4766V10.5H11.082Z" fill="#D88875"/>
</g>
</svg>
