<svg width="24" height="25" viewBox="0 0 24 25" fill="none" xmlns="http://www.w3.org/2000/svg">
<g id="YouTube">
<path id="Vector" d="M12 4.5C12 4.5 5.74555 4.49997 4.18555 4.91797C3.32455 5.14797 2.64797 5.82555 2.41797 6.68555C1.99997 8.24555 2 12.5 2 12.5C2 12.5 1.99997 16.7545 2.41797 18.3145C2.64797 19.1755 3.32555 19.852 4.18555 20.082C5.74555 20.5 12 20.5 12 20.5C12 20.5 18.2545 20.5 19.8145 20.082C20.6745 19.852 21.352 19.1745 21.582 18.3145C22 16.7545 22 12.5 22 12.5C22 12.5 22 8.24555 21.582 6.68555C21.352 5.82555 20.6745 5.14797 19.8145 4.91797C18.2545 4.49997 12 4.5 12 4.5ZM12 6.5C14.882 6.5 18.4909 6.63361 19.2969 6.84961C19.4659 6.89461 19.6044 7.03312 19.6504 7.20312C19.8914 8.10113 20 10.842 20 12.5C20 14.158 19.8914 16.8979 19.6504 17.7969C19.6054 17.9659 19.4669 18.1044 19.2969 18.1504C18.4919 18.3664 14.882 18.5 12 18.5C9.119 18.5 5.51012 18.3664 4.70312 18.1504C4.53413 18.1054 4.39561 17.9669 4.34961 17.7969C4.10861 16.8989 4 14.158 4 12.5C4 10.842 4.10861 8.10117 4.34961 7.20117C4.39461 7.03317 4.53312 6.89461 4.70312 6.84961C5.50813 6.63361 9.118 6.5 12 6.5ZM10 9.03516V15.9648L16 12.5L10 9.03516Z" fill="#D88875"/>
</g>
</svg>
